<?xml version="1.0" encoding="utf-8"?>
<!-- Generator: Adobe Illustrator 23.0.0, SVG Export Plug-In . SVG Version: 6.00 Build 0)  -->
<svg version="1.1" id="레이어_1" xmlns="http://www.w3.org/2000/svg" xmlns:xlink="http://www.w3.org/1999/xlink" x="0px"
	 y="0px" viewBox="0 0 80.2 79.5" style="enable-background:new 0 0 80.2 79.5;" xml:space="preserve">
<style type="text/css">
	.st0{fill:#ED3E63;}
</style>
<g>
	<path class="st0" d="M69.7,7.5H40H10.3c-1.4,0-2.5,1.1-2.5,2.5v59.5c0,1.4,1.1,2.5,2.5,2.5H40h29.7c1.4,0,2.5-1.1,2.5-2.5V54.6
		V39.7V10C72.2,8.6,71.1,7.5,69.7,7.5z M37.5,39.7v14.9v11.3c0,0.6-0.4,1-1,1H13.8c-0.5,0-1-0.4-1-1V13.5c0-0.6,0.4-1,1-1h22.7
		c0.6,0,1,0.4,1,1V39.7z M67.2,65.9c0,0.6-0.4,1-1,1H43.5c-0.5,0-1-0.4-1-1V58c0-0.6,0.4-1,1-1h22.7c0.6,0,1,0.4,1,1V65.9z
		 M67.2,51.1c0,0.6-0.4,1-1,1H43.5c-0.5,0-1-0.5-1-1v-7.9c0-0.6,0.4-1,1-1h22.7c0.6,0,1,0.4,1,1V51.1z M67.2,36.2c0,0.6-0.4,1-1,1
		H43.5c-0.5,0-1-0.4-1-1V13.5c0-0.6,0.4-1,1-1h22.7c0.6,0,1,0.4,1,1V36.2z"/>
</g>
</svg>
